<svg width="132" height="132" viewBox="0 0 132 132" fill="none" xmlns="http://www.w3.org/2000/svg">
  <circle cx="66" cy="66" r="64.5" stroke="currentColor" stroke-width="3"/>
  <path d="M66 0C29.557 0 0 29.5515 0 66C0 95.161 18.909 119.9 45.1385 128.629C48.433 129.239 49.5 127.193 49.5 125.455V113.168C31.141 117.161 27.3185 105.38 27.3185 105.38C24.3155 97.7515 19.987 95.722 19.987 95.722C13.9975 91.6245 20.4435 91.7125 20.4435 91.7125C27.071 92.1745 30.558 98.516 30.558 98.516C36.443 108.603 45.9965 105.688 49.764 104C50.3525 99.737 52.063 96.822 53.955 95.1775C39.2975 93.5 23.8865 87.8405 23.8865 62.557C23.8865 55.3465 26.466 49.4615 30.6845 44.8415C30.0025 43.175 27.742 36.4595 31.328 27.3735C31.328 27.3735 36.872 25.6025 49.4835 34.1385C54.747 32.6755 60.39 31.944 66 31.9165C71.61 31.944 77.2585 32.6755 82.533 34.1385C95.1335 25.6025 100.666 27.3735 100.666 27.3735C104.258 36.465 101.997 43.1805 101.315 44.8415C105.55 49.4615 108.108 55.352 108.108 62.557C108.108 87.9065 92.6695 93.489 77.9735 95.1225C80.3385 97.1685 82.5 101.184 82.5 107.344V125.455C82.5 127.21 83.556 129.272 86.9055 128.623C113.113 119.884 132 95.15 132 66C132 29.5515 102.448 0 66 0Z" fill="currentColor"/>
</svg>
