<svg width="132" height="132" viewBox="0 0 132 132" fill="none" xmlns="http://www.w3.org/2000/svg"><path fill-rule="evenodd" clip-rule="evenodd" d="M66 0C29.557 0 0 29.546 0 66C0 102.448 29.557 132 66 132C102.448 132 132 102.448 132 66C132 29.546 102.448 0 66 0ZM83.732 98.2905C84.766 99.022 86.097 99.2035 87.285 98.758C88.4675 98.307 89.342 97.2895 89.606 96.0575C92.3945 82.9565 99.1595 49.7915 101.695 37.8785C101.887 36.9765 101.569 36.0415 100.865 35.442C100.155 34.8425 99.176 34.672 98.307 34.991C84.854 39.974 43.4225 55.517 26.488 61.7815C25.4155 62.183 24.717 63.2115 24.75 64.35C24.7885 65.483 25.553 66.4675 26.653 66.7975C34.2485 69.069 44.2145 72.2315 44.2145 72.2315C44.2145 72.2315 48.873 86.3005 51.2985 93.4505C51.6065 94.3525 52.3105 95.0565 53.2345 95.2985C54.164 95.5405 55.1485 95.2875 55.8415 94.633C59.741 90.9535 65.769 85.261 65.769 85.261C65.769 85.261 77.231 93.6595 83.732 98.2905V98.2905ZM48.4055 70.4495L53.7955 88.22L54.9945 76.967C54.9945 76.967 75.801 58.1955 87.67 47.498C88.0165 47.1845 88.0605 46.6565 87.7745 46.288C87.4885 45.9195 86.9605 45.8315 86.57 46.0845C72.82 54.8625 48.4055 70.4495 48.4055 70.4495V70.4495Z" fill="currentColor"/></svg>