<?xml version="1.0" standalone="no"?>
<!DOCTYPE svg PUBLIC "-//W3C//DTD SVG 20010904//EN"
 "http://www.w3.org/TR/2001/REC-SVG-20010904/DTD/svg10.dtd">
<svg version="1.0" xmlns="http://www.w3.org/2000/svg"
 width="512.000000pt" height="512.000000pt" viewBox="0 0 512.000000 512.000000"
 preserveAspectRatio="xMidYMid meet">
<metadata>
Created by potrace 1.14, written by Peter Selinger 2001-2017
</metadata>
<g transform="translate(0.000000,512.000000) scale(0.100000,-0.100000)"
fill="#000000" stroke="none">
<path d="M3619 4299 c-7 -4 -35 -11 -62 -14 -27 -4 -51 -13 -54 -20 -2 -8 -12
-11 -20 -8 -11 4 -14 2 -9 -5 4 -7 1 -12 -7 -12 -19 0 -117 -92 -117 -109 0
-16 -71 -6 -82 12 -5 8 -8 8 -8 -2 0 -10 -8 -7 -27 10 -52 46 -105 77 -143 85
-8 2 -16 7 -18 12 -2 6 -12 8 -22 5 -11 -3 -20 -1 -20 4 0 13 -31 16 -145 16
-119 0 -440 -10 -440 -13 0 -1 -13 -3 -30 -5 -16 -1 -31 -4 -32 -5 -4 -3 -3
-3 -85 -19 -38 -7 -68 -18 -68 -24 0 -6 -3 -7 -7 -4 -3 4 -13 1 -21 -6 -13
-10 -14 -9 -7 2 6 11 2 10 -16 -2 -13 -9 -31 -17 -40 -17 -10 0 -19 -3 -21 -7
-1 -5 -29 -21 -61 -37 -91 -45 -160 -99 -241 -185 -65 -70 -71 -77 -73 -89 -2
-6 -23 -32 -48 -58 -24 -26 -42 -50 -40 -54 3 -4 -4 -10 -14 -13 -16 -4 -19 3
-25 50 -8 65 -49 148 -85 171 -14 9 -32 22 -38 29 -32 29 -156 47 -208 29 -45
-16 -107 -51 -112 -63 -6 -15 -43 -18 -43 -4 0 24 -88 100 -135 116 -45 15
-125 21 -165 12 -66 -14 -140 -77 -174 -146 -26 -55 -34 -158 -15 -190 17 -26
13 -29 -39 -32 -23 -2 -42 -7 -42 -11 0 -4 -9 -8 -20 -8 -33 0 -86 -41 -115
-90 -55 -88 -43 -195 30 -272 58 -61 64 -62 543 -62 l434 0 -6 -31 c-3 -16 -8
-41 -11 -55 -24 -109 -19 -546 7 -577 7 -9 7 -13 -2 -13 -9 0 -9 -4 -2 -12 5
-7 13 -37 16 -67 4 -29 9 -58 13 -64 4 -7 0 -8 -13 -3 -27 12 -38 11 -73 -4
-17 -7 -31 -18 -31 -25 0 -7 -7 -18 -15 -25 -8 -7 -12 -16 -9 -21 3 -5 1 -9
-4 -9 -5 0 -9 -6 -10 -12 -7 -86 -11 -110 -16 -115 -3 -3 -17 2 -31 11 -14 9
-25 13 -25 9 0 -5 -5 -1 -10 7 -7 12 -34 15 -130 15 -96 0 -123 -3 -130 -15
-5 -8 -10 -11 -10 -7 0 32 -180 -116 -180 -149 0 -8 -4 -14 -9 -14 -13 0 -42
-102 -44 -153 -1 -29 -5 -43 -12 -39 -6 3 -5 0 1 -9 6 -8 14 -32 17 -54 3 -22
7 -47 10 -55 4 -10 -9 -25 -40 -45 -45 -30 -62 -52 -84 -110 -18 -45 -18 -65
0 -125 24 -85 106 -158 194 -174 15 -2 32 -8 38 -12 7 -4 9 -3 5 4 -9 14 57
13 66 -2 6 -8 8 -8 8 0 0 12 121 11 140 -1 6 -3 10 -2 10 3 0 9 51 7 77 -3 7
-2 15 0 18 6 4 5 11 6 17 3 5 -4 141 -6 302 -7 l291 0 27 -28 c15 -16 25 -29
22 -29 -5 0 130 -132 173 -167 14 -13 30 -23 34 -23 5 0 28 -15 52 -33 61 -47
219 -122 231 -109 3 3 6 1 6 -5 0 -9 23 -15 115 -29 17 -3 37 -8 45 -11 8 -3
23 -5 34 -4 10 2 23 -3 27 -11 7 -10 9 -10 9 0 0 9 5 10 17 3 10 -5 29 -8 43
-7 14 1 33 -2 44 -7 10 -5 16 -5 13 0 -3 4 35 8 84 7 49 0 89 2 89 5 0 3 17 7
38 9 46 4 87 10 87 12 0 1 14 4 30 6 17 3 37 7 45 11 8 3 26 7 40 9 14 2 26 8
28 14 2 5 12 10 22 10 23 0 92 31 102 45 4 6 11 10 15 10 13 0 153 96 153 105
0 4 14 13 30 20 17 7 30 16 30 20 0 4 24 31 53 61 65 67 99 109 89 109 -4 0 1
5 11 11 9 5 17 15 17 20 0 22 27 34 75 32 28 -1 53 -2 58 -3 10 -3 45 -3 55 0
16 5 115 0 125 -7 5 -3 8 -2 5 3 -4 5 18 9 47 9 29 0 51 -4 48 -8 -3 -5 4 -4
15 2 27 14 35 14 26 -2 -5 -8 -2 -8 9 2 14 11 17 11 17 0 0 -11 3 -11 11 1 8
11 12 12 16 2 2 -6 9 -9 15 -6 16 10 177 10 171 0 -3 -5 2 -4 12 1 9 6 35 7
56 3 22 -4 42 -3 45 1 3 5 17 9 32 9 23 1 109 38 90 40 -4 0 5 13 22 28 16 16
33 46 38 68 10 45 5 107 -9 112 -5 2 -7 8 -3 13 3 5 -7 20 -22 34 -15 14 -23
25 -18 25 5 0 -8 9 -29 20 -20 11 -44 20 -52 20 -8 0 -15 4 -15 9 0 4 -11 7
-25 6 -14 -2 -25 -3 -25 -2 -1 1 -3 20 -6 42 -9 67 -23 100 -58 136 -48 49
-56 54 -105 66 -56 15 -161 2 -161 -18 0 -6 -4 -7 -10 -4 -5 3 -10 2 -10 -2 0
-5 -10 -14 -22 -22 -20 -13 -22 -12 -11 1 7 8 10 18 6 21 -3 4 0 7 7 7 7 0 11
3 7 6 -3 3 -2 17 4 31 5 13 11 36 14 51 3 15 8 41 11 57 7 32 8 170 2 195 -9
36 -41 90 -53 90 -7 0 -15 4 -17 10 -1 5 -15 11 -30 12 -16 1 -28 6 -28 11 0
19 22 103 31 121 8 14 8 16 -3 10 -10 -6 -10 -5 -2 7 11 13 16 35 30 123 3 21
7 46 9 55 7 35 17 126 14 131 -1 3 3 15 10 28 9 17 9 22 -1 22 -9 0 -9 3 2 10
22 14 20 288 -3 348 -9 23 -14 42 -11 42 2 0 0 8 -5 19 -9 17 -5 20 48 30 58
11 127 52 163 95 10 12 22 26 26 32 19 21 33 85 33 143 1 73 -26 135 -80 188
-32 31 -103 71 -138 77 -19 3 -25 13 -29 43 -5 46 -40 135 -68 171 -23 31
-110 112 -114 107 -3 -3 -10 1 -16 8 -18 21 -92 41 -190 51 -14 2 -30 0 -37
-5z"/>
</g>
</svg>
