<svg width="132" height="132" viewBox="0 0 132 132" fill="none" xmlns="http://www.w3.org/2000/svg">
  <path d="M66 0C29.5515 0 0 29.5515 0 66C0 102.448 29.5515 132 66 132C102.448 132 132 102.448 132 66C132 29.5515 102.448 0 66 0ZM55 88H44V55H55V88ZM49.5 50.0995C46.1615 50.0995 43.45 47.3715 43.45 44C43.45 40.634 46.156 37.9005 49.5 37.9005C52.844 37.9005 55.55 40.634 55.55 44C55.55 47.3715 52.8385 50.0995 49.5 50.0995ZM93.5 88H82.511V72.2645C82.511 61.919 71.5 62.7935 71.5 72.2645V88H60.5V55H71.5V61.0115C76.296 52.1235 93.5 51.4635 93.5 69.5255V88Z" fill="currentColor"/>
</svg>
